<svg width="319.043" height="209.704" viewBox="0 0 84.414 55.484" xml:space="preserve" xmlns="http://www.w3.org/2000/svg"><path style="display:inline;fill:#edc818;fill-opacity:1" d="M71.19 159.57c.183-.074.48-.074.662 0 .182.073.033.133-.33.133-.364 0-.513-.06-.331-.133zm1.258-.227c.344-.125 5.175-.794 9.52-1.32 6.295-.762 12.876-1.187 22.891-1.48 13.873-.406 23.885.074 33.999 1.631 7.328 1.128 7.05 1.317-.575.392-7.819-.95-14.37-1.29-25.222-1.312-13.253-.027-21.208.361-35.057 1.709-5.259.511-6.075.567-5.556.38zm72.297-.038c.182-.073.48-.073.661 0 .182.073.034.133-.33.133s-.513-.06-.331-.133zm-10.614-7.76c-3.182-.693-5.869-1.396-5.97-1.56-.103-.166-.1-1.104.008-2.084.107-.98.246-2.405.31-3.165l.114-1.383-2.017-1.924c-3.7-3.53-9.06-8.528-9.837-9.171-.904-.749-.953-1.103-.243-1.745.621-.562-.035-1.01 5.825 3.972 9.397 7.988 13.23 11.282 13.23 11.37 0 .05-.878.024-1.951-.057s-2.355-.072-2.849.021c-.784.147-.955.33-1.356 1.46-.422 1.189-.603 2.412-.356 2.412.282 0 11.678 2.96 11.777 3.06.254.254-1.153 0-6.684-1.205zm-71.737-2.061c.727-.687 1.918-1.774 2.645-2.416.728-.642 1.92-1.713 2.648-2.381 4.631-4.245 6.452-5.844 6.655-5.844.128 0 1.157.863 2.288 1.918l2.056 1.918-1.09.892-1.088.892-.852-.826c-.469-.454-.947-.826-1.063-.826-.28 0-1.33.834-2.94 2.337-.728.68-2.336 2.14-3.572 3.245l-2.248 2.01-2.381.164-2.381.165zm9.665-.138c.792-.728 2.394-2.16 3.56-3.18 2.752-2.41 6.422-5.718 7.124-6.422.304-.304 2.22-2.028 4.257-3.831 2.037-1.803 3.788-3.398 3.89-3.545.112-.158.54.062 1.06.546.478.446 1.406 1.29 2.061 1.873.655.584 2.507 2.242 4.116 3.683 1.609 1.442 3.929 3.515 5.156 4.606a498.631 498.631 0 0 1 3.681 3.307c.798.728 1.584 1.442 1.748 1.588 1.547 1.376 2.786 2.572 2.716 2.62-.048.034-1.492.01-3.209-.052l-3.122-.113-2.699-2.406c-1.484-1.323-2.758-2.478-2.83-2.566-.073-.088-1.203-1.105-2.512-2.261a264.297 264.297 0 0 1-2.801-2.498c-2.838-2.664-3.087-2.782-3.97-1.882-.443.452-2.394 2.222-8.844 8.026l-3.972 3.574-3.424.128-3.425.128zm16.308.433c-.097-.097-.177-.573-.177-1.058 0-.87.018-.882 1.19-.882h1.192v1.058c0 1.05-.008 1.058-1.015 1.058-.558 0-1.093-.08-1.19-.176zm2.998-.882v-1.058H93.747v2.116H91.366zm-3.002-1.767c-.095-.096-.173-.57-.173-1.055 0-.87.018-.882 1.19-.882h1.192v1.015c0 .994-.021 1.015-1.018 1.055-.56.021-1.096-.038-1.19-.133zm3.002-.879v-1.058H93.747v2.116H91.366zm-13.058-5.147c-.658-.61-.7-.794-.7-3.042v-2.394h4.762v3.56l-1.389 1.253c-.764.69-1.52 1.258-1.68 1.263-.161.005-.608-.283-.993-.64zm21.876-1.824c-1.044-.895-1.907-1.707-1.918-1.803-.019-.16 4.47-4.122 5.592-4.936.264-.191 1.64-.621 3.056-.955 6.773-1.597 8.842-2.044 8.953-1.933.066.066-.33.46-.88.877-.927.702-7.274 5.926-10.225 8.416-2.618 2.209-2.411 2.193-4.578.334zm12.878.755c0-.815.07-.911.595-.813.328.06.804.12 1.059.13.334.014.463.242.463.814 0 .75-.059.793-1.059.793-1.032 0-1.058-.022-1.058-.924zm3.1.76c-.104-.103-.19-.514-.19-.912 0-.666.079-.72.993-.683.92.037.991.097.98.833-.01.685-.12.805-.803.873-.435.043-.877-.006-.98-.11zm-3.047-3.263c-.059-.777-.022-.806 1.019-.806 1.022 0 1.075.04.996.728-.071.622-.219.739-1.018.806-.872.073-.94.024-.997-.728zm2.858.003c0-.769.053-.81 1.067-.81 1.011 0 1.062.039.971.728-.082.626-.232.74-1.067.81-.925.078-.971.043-.971-.728zm-18.264-1.78c-.004-.411-.173-4.618-.374-9.348-.202-4.73-.344-8.622-.316-8.65.027-.028 1.297.586 2.821 1.365l2.771 1.417.064 6.043.063 6.043-2.267 1.852c-1.248 1.019-2.377 1.892-2.511 1.94-.134.049-.247-.249-.251-.661zm-3.549-1.97c-1.446-1.293-2.771-2.35-2.944-2.35-.173 0-.462.178-.643.396-.182.219-.494.397-.694.397-.297 0-.365-.932-.365-5.018v-5.018l2.315-1.5c1.274-.824 2.764-1.799 3.312-2.165.549-.366 1.051-.611 1.117-.545.132.132.733 17.975.61 18.085-.043.037-1.261-.99-2.708-2.282zm27.97-.476-1.381-1.243-.073-9.312c-.04-5.121.017-9.311.128-9.311.11 0 .846.506 1.634 1.124l1.433 1.125.02 9.31c.01 5.122-.07 9.365-.18 9.43-.109.066-.82-.44-1.58-1.123zm-18.857-7.525v-5.916l-3.216-1.559c-1.769-.857-3.406-1.519-3.638-1.47-.232.05-.801.378-1.265.728-.463.351-.91.638-.992.638-.082 0-.15-1.533-.15-3.408v-3.407l1.125-.904c1.828-1.47 8.141-6.058 8.551-6.215.325-.125.378 1.8.378 13.641 0 12.079-.049 13.787-.397 13.787-.34 0-.396-.834-.396-5.915zm1.526-7.958c-.04-7.431-.05-13.552-.025-13.601.025-.05.77.235 1.656.632l1.61.723-.069 12.575-.068 12.576-1.517.303-1.517.303zm14.265 12.907c-.274-.274-.219-15.174.056-15.174.266 0 .55 14.834.29 15.152a.23.23 0 0 1-.346.022zm-9.97-10.039c0-5.298.095-9.633.211-9.633.78 0 .847.773.847 9.812 0 8.954-.013 9.18-.53 9.315-.521.137-.529.008-.529-9.494zm2.025 6.578c-.094-1.421-.171-5.51-.172-9.085l-.001-6.5 2.41-1.915c1.327-1.053 2.441-1.878 2.478-1.834.036.045.14 4.746.23 10.449l.165 10.367-2.046.437a90.85 90.85 0 0 0-2.47.551c-.358.098-.448-.28-.593-2.47zm6.088 1.87c-.296-.297-.21-16.228.088-16.228.171 0 .265 2.91.265 8.202 0 4.51-.04 8.202-.088 8.202-.049 0-.168-.08-.265-.177z" transform="translate(-61.07 -104.219)"/></svg>